<svg width="1584" height="396" viewBox="0 0 1584 396" fill="none" xmlns="http://www.w3.org/2000/svg">
<rect width="1584" height="396" fill="#F5F5F5"/>
<g id="Awesome banner" clip-path="url(#clip0_0_1)">
<rect width="1584" height="396" fill="url(#paint0_linear_0_1)"/>
<ellipse id="Ellipse 2" cx="323" cy="64" rx="285" ry="288" fill="url(#paint1_linear_0_1)" fill-opacity="0.1"/>
<g id="copyright">
<path d="M75.95 334.52L72.30 334.52L72.30 311.16L77.20 311.16L83.70 330.04Q83.60 329.02 83.50 327.62Q83.41 326.23 83.33 324.79Q83.25 323.35 83.25 322.23L83.25 311.16L86.90 311.16L86.90 334.52L82 334.52L75.57 315.64Q75.63 316.57 75.73 317.88Q75.82 319.19 75.89 320.57Q75.95 321.94 75.95 323.10L75.95 334.52M98.80 334.84Q96.46 334.84 94.67 333.96Q92.88 333.08 91.89 331.53Q90.90 329.98 90.90 327.93Q90.90 325.78 92.13 324.18Q93.36 322.58 95.34 322.17L95.34 322.10Q93.65 321.75 92.61 320.38Q91.57 319 91.57 317.11Q91.57 315.26 92.48 313.85Q93.39 312.44 95.02 311.64Q96.66 310.84 98.80 310.84Q100.94 310.84 102.59 311.64Q104.24 312.44 105.15 313.85Q106.06 315.26 106.06 317.11Q106.06 319 105.01 320.38Q103.95 321.75 102.26 322.10L102.26 322.17Q104.24 322.58 105.47 324.18Q106.70 325.78 106.70 327.93Q106.70 329.98 105.71 331.53Q104.72 333.08 102.93 333.96Q101.14 334.84 98.80 334.84M98.80 320.73Q100.30 320.73 101.23 319.82Q102.16 318.90 102.16 317.46Q102.16 315.99 101.23 315.08Q100.30 314.17 98.80 314.17Q97.30 314.17 96.37 315.08Q95.44 315.99 95.44 317.46Q95.44 318.90 96.37 319.82Q97.30 320.73 98.80 320.73M98.80 331.45Q100.56 331.45 101.68 330.42Q102.80 329.40 102.80 327.74Q102.80 326.04 101.68 325Q100.56 323.96 98.80 323.96Q97.04 323.96 95.92 325Q94.80 326.04 94.80 327.74Q94.80 329.40 95.92 330.42Q97.04 331.45 98.80 331.45M114.35 334.52L110.70 334.52L110.70 311.16L115.60 311.16L122.10 330.04Q122 329.02 121.90 327.62Q121.81 326.23 121.73 324.79Q121.65 323.35 121.65 322.23L121.65 311.16L125.30 311.16L125.30 334.52L120.40 334.52L113.97 315.64Q114.03 316.57 114.13 317.88Q114.22 319.19 114.29 320.57Q114.35 321.94 114.35 323.10" fill="white" fill-opacity="0.9"/>
<path d="M161.48 325.24L151.24 325.24L151.24 322.68L161.48 322.68" fill="white" fill-opacity="0.9"/>
<path d="M195.02 334.84Q191.82 334.84 189.96 333.05Q188.11 331.26 188.11 328.12L188.11 317.56Q188.11 314.42 189.96 312.63Q191.82 310.84 195.02 310.84Q198.15 310.84 200.01 312.65Q201.87 314.46 201.87 317.56L198.99 317.56Q198.99 315.58 197.95 314.50Q196.91 313.43 195.02 313.43Q193.13 313.43 192.06 314.50Q190.99 315.58 190.99 317.56L190.99 328.12Q190.99 330.10 192.06 331.18Q193.13 332.25 195.02 332.25Q196.91 332.25 197.95 331.18Q198.99 330.10 198.99 328.12L201.87 328.12Q201.87 331.22 200.01 333.03Q198.15 334.84 195.02 334.84" fill="white" fill-opacity="0.9"/>
<path d="M213.96 334.84Q210.83 334.84 209 333.02Q207.18 331.19 207.18 327.80L207.18 317.88Q207.18 314.49 209 312.66Q210.83 310.84 213.96 310.84Q217.10 310.84 218.92 312.66Q220.75 314.49 220.75 317.85L220.75 327.80Q220.75 331.19 218.92 333.02Q217.10 334.84 213.96 334.84M213.96 332.25Q215.85 332.25 216.86 331.18Q217.87 330.10 217.87 328.12L217.87 317.56Q217.87 315.58 216.86 314.50Q215.85 313.43 213.96 313.43Q212.11 313.43 211.08 314.50Q210.06 315.58 210.06 317.56L210.06 328.12Q210.06 330.10 211.08 331.18Q212.11 332.25 213.96 332.25" fill="white" fill-opacity="0.9"/>
<path d="M228.65 334.52L225.87 334.52L225.87 311.16L230.12 311.16L233.10 321.27L236.20 311.16L240.46 311.16L240.46 334.52L237.67 334.52L237.67 323.48Q237.67 321.91 237.72 319.88Q237.77 317.85 237.87 315.77Q237.96 313.69 238.09 312.02L234.31 324.09L231.82 324.09L228.20 312.31Q228.46 314.68 228.55 317.50Q228.65 320.31 228.65 323.48" fill="white" fill-opacity="0.9"/>
<path d="M247.85 334.52L245.07 334.52L245.07 311.16L249.32 311.16L252.30 321.27L255.40 311.16L259.66 311.16L259.66 334.52L256.87 334.52L256.87 323.48Q256.87 321.91 256.92 319.88Q256.97 317.85 257.07 315.77Q257.16 313.69 257.29 312.02L253.51 324.09L251.02 324.09L247.40 312.31Q247.66 314.68 247.75 317.50Q247.85 320.31 247.85 323.48" fill="white" fill-opacity="0.9"/>
<path d="M271.56 334.84Q268.30 334.84 266.57 333.03Q264.84 331.22 264.84 328.12L264.84 311.16L267.72 311.16L267.72 328.12Q267.72 330.04 268.67 331.16Q269.61 332.28 271.56 332.28Q273.48 332.28 274.44 331.16Q275.40 330.04 275.40 328.12L275.40 311.16L278.28 311.16L278.28 328.12Q278.28 331.26 276.57 333.05Q274.86 334.84 271.56 334.84" fill="white" fill-opacity="0.9"/>
<path d="M286.83 334.52L284.04 334.52L284.04 311.16L287.88 311.16L295.02 331.16Q294.95 330.36 294.87 329.19Q294.79 328.02 294.75 326.73Q294.70 325.43 294.70 324.28L294.70 311.16L297.48 311.16L297.48 334.52L293.64 334.52L286.54 314.52Q286.60 315.29 286.67 316.46Q286.73 317.62 286.78 318.92Q286.83 320.22 286.83 321.40" fill="white" fill-opacity="0.9"/>
<path d="M316.20 334.52L303.72 334.52L303.72 331.90L308.49 331.90L308.49 313.78L303.72 313.78L303.72 311.16L316.20 311.16L316.20 313.78L311.43 313.78L311.43 331.90L316.20 331.90" fill="white" fill-opacity="0.9"/>
<path d="M330.60 334.52L327.72 334.52L327.72 313.78L321.32 313.78L321.32 311.16L337 311.16L337 313.78L330.60 313.78" fill="white" fill-opacity="0.9"/>
<path d="M349.80 334.52L346.92 334.52L346.92 325.78L339.88 311.16L342.95 311.16L347.50 320.76Q347.88 321.56 348.11 322.12Q348.33 322.68 348.39 322.94Q348.46 322.68 348.70 322.12Q348.94 321.56 349.32 320.76L353.87 311.16L356.84 311.16L349.80 325.78" fill="white" fill-opacity="0.9"/>
<path d="M382.83 334.52L380.04 334.52L380.04 311.16L383.88 311.16L391.02 331.16Q390.95 330.36 390.87 329.19Q390.79 328.02 390.75 326.73Q390.70 325.43 390.70 324.28L390.70 311.16L393.48 311.16L393.48 334.52L389.64 334.52L382.54 314.52Q382.60 315.29 382.67 316.46Q382.73 317.62 382.78 318.92Q382.83 320.22 382.83 321.40" fill="white" fill-opacity="0.9"/>
<path d="M405.96 334.84Q402.83 334.84 401 333.02Q399.18 331.19 399.18 327.80L399.18 317.88Q399.18 314.49 401 312.66Q402.83 310.84 405.96 310.84Q409.10 310.84 410.92 312.66Q412.75 314.49 412.75 317.85L412.75 327.80Q412.75 331.19 410.92 333.02Q409.10 334.84 405.96 334.84M405.96 332.25Q407.85 332.25 408.86 331.18Q409.87 330.10 409.87 328.12L409.87 317.56Q409.87 315.58 408.86 314.50Q407.85 313.43 405.96 313.43Q404.11 313.43 403.08 314.50Q402.06 315.58 402.06 317.56L402.06 328.12Q402.06 330.10 403.08 331.18Q404.11 332.25 405.96 332.25" fill="white" fill-opacity="0.9"/>
<path d="M424.55 334.52L418.51 334.52L418.51 311.16L424.55 311.16Q426.83 311.16 428.47 312.02Q430.12 312.89 431.03 314.46Q431.95 316.02 431.95 318.17L431.95 327.48Q431.95 329.62 431.03 331.21Q430.12 332.79 428.47 333.66Q426.83 334.52 424.55 334.52M421.39 313.72L421.39 331.96L424.55 331.96Q426.67 331.96 427.87 330.78Q429.07 329.59 429.07 327.48L429.07 318.17Q429.07 316.09 427.87 314.90Q426.67 313.72 424.55 313.72" fill="white" fill-opacity="0.9"/>
<path d="M451.40 334.52L437.96 334.52L437.96 311.16L451.40 311.16L451.40 313.78L440.81 313.78L440.81 321.02L450.28 321.02L450.28 323.58L440.81 323.58L440.81 331.90L451.40 331.90" fill="white" fill-opacity="0.9"/>
<path d="M463.69 334.84Q460.30 334.84 458.28 333.05Q456.27 331.26 456.27 328.12L459.15 328.12Q459.15 330.07 460.39 331.18Q461.64 332.28 463.69 332.28Q465.67 332.28 466.86 331.13Q468.04 329.98 468.04 328.12Q468.04 326.71 467.29 325.67Q466.54 324.63 465.13 324.25L461.58 323.26Q459.37 322.62 458.11 320.97Q456.84 319.32 456.84 317.08Q456.84 315.22 457.67 313.82Q458.51 312.41 460.01 311.62Q461.51 310.84 463.47 310.84Q465.45 310.84 466.97 311.62Q468.49 312.41 469.35 313.80Q470.22 315.19 470.22 317.02L467.34 317.02Q467.34 315.42 466.25 314.41Q465.16 313.40 463.47 313.40Q461.77 313.40 460.71 314.41Q459.66 315.42 459.66 317.02Q459.66 318.30 460.35 319.21Q461.03 320.12 462.28 320.47L465.93 321.50Q468.27 322.14 469.56 323.91Q470.86 325.69 470.86 328.12Q470.86 331.19 468.91 333.02Q466.95 334.84 463.69 334.84" fill="white" fill-opacity="0.9"/>
</g>
<path d="M77.20 197.88Q74.85 197.88 73.48 196.51Q72.11 195.14 72.11 192.60L72.11 185.16Q72.11 182.62 73.48 181.25Q74.85 179.88 77.20 179.88Q79.55 179.88 80.92 181.25Q82.29 182.62 82.29 185.14L82.29 192.60Q82.29 195.14 80.92 196.51Q79.55 197.88 77.20 197.88M77.20 195.94Q78.62 195.94 79.37 195.13Q80.13 194.33 80.13 192.84L80.13 184.92Q80.13 183.43 79.37 182.63Q78.62 181.82 77.20 181.82Q75.81 181.82 75.04 182.63Q74.27 183.43 74.27 184.92L74.27 192.84Q74.27 194.33 75.04 195.13Q75.81 195.94 77.20 195.94" fill="white" fill-opacity="0.7"/>
<path d="M88.77 201.96L86.61 201.96L86.61 184.44L88.77 184.44L88.77 186.96L88.79 186.96Q88.96 185.66 89.92 184.93Q90.88 184.20 92.37 184.20Q94.36 184.20 95.54 185.51Q96.71 186.82 96.71 189.10L96.71 192.96Q96.71 195.24 95.54 196.56Q94.36 197.88 92.37 197.88Q90.88 197.88 89.92 197.14Q88.96 196.39 88.79 195.12L88.72 195.12L88.77 198.12L88.77 201.96M91.65 196.01Q93.02 196.01 93.78 195.29Q94.55 194.57 94.55 192.96L94.55 189.12Q94.55 187.49 93.78 186.78Q93.02 186.07 91.65 186.07Q90.33 186.07 89.55 186.91Q88.77 187.75 88.77 189.24L88.77 192.84Q88.77 194.33 89.55 195.17Q90.33 196.01 91.65 196.01" fill="white" fill-opacity="0.7"/>
<path d="MNaN 197.88Q103.67 197.88 102.24 196.48Q100.82 195.07 100.82 192.60L100.82 189.48Q100.82 187.01 102.24 185.60Q103.67 184.20 NaN 184.20Q107.56 184.20 108.72 184.82Q109.89 185.45 110.54 186.58Q111.18 187.70 111.18 189.24L111.18 191.59L102.93 191.59L102.93 192.84Q102.93 194.30 103.77 195.16Q104.61 196.01 NaN 196.01Q107.20 196.01 107.98 195.54Q108.76 195.07 108.93 194.28L111.09 194.28Q110.87 195.94 109.48 196.91Q108.09 197.88 NaN 197.88M102.93 189.24L102.93 189.91L109.07 189.91L109.07 189.24Q109.07 187.68 108.27 186.83Q107.46 185.98 NaN 185.98Q104.54 185.98 103.73 186.83Q102.93 187.68 102.93 189.24" fill="white" fill-opacity="0.7"/>
<path d="M117.57 197.64L115.41 197.64L115.41 184.44L117.57 184.44L117.57 186.96L117.59 186.96Q117.76 185.64 118.67 184.92Q119.58 184.20 121.10 184.20Q123.09 184.20 124.26 185.42Q125.44 186.65 125.44 188.76L125.44 197.64L123.28 197.64L123.28 189.14Q123.28 187.63 122.52 186.83Q121.77 186.02 120.47 186.02Q119.13 186.02 118.35 186.86Q117.57 187.70 117.57 189.24" fill="white" fill-opacity="0.7"/>
<path d="M131.01 197.64L128.80 197.64L133.36 180.12L136.26 180.12L140.80 197.64L138.62 197.64L137.46 192.98L132.16 192.98L131.01 197.64M133.94 185.74L132.59 191.16L137.01 191.16L135.66 185.76Q135.28 184.22 135.06 183.19Q134.85 182.16 134.80 181.85Q134.75 182.16 134.54 183.19Q134.32 184.22 133.94 185.74" fill="white" fill-opacity="0.7"/>
<path d="M146.37 197.64L144.21 197.64L144.21 180.12L149.85 180.12Q152.30 180.12 153.75 181.52Q155.20 182.93 155.20 185.28Q155.20 187.63 153.75 189.04Q152.30 190.44 149.85 190.44L146.37 190.44L146.37 197.64M146.37 182.06L146.37 188.50L149.85 188.50Q151.26 188.50 152.12 187.62Q152.97 186.74 152.97 185.28Q152.97 183.79 152.12 182.93Q151.26 182.06 149.85 182.06" fill="white" fill-opacity="0.7"/>
<path d="M168.28 197.64L158.92 197.64L158.92 195.67L162.50 195.67L162.50 182.09L158.92 182.09L158.92 180.12L168.28 180.12L168.28 182.09L164.70 182.09L164.70 195.67L168.28 195.67" fill="white" fill-opacity="0.7"/>
<path d="M192.52 197.64L190.36 197.64L190.36 188.21L186.52 188.21L186.52 186.24L190.36 186.24L190.36 183.48Q190.36 181.92 191.34 181.02Q192.33 180.12 194.06 180.12L197.92 180.12L197.92 182.09L194.06 182.09Q192.52 182.09 192.52 183.48L192.52 186.24L197.92 186.24L197.92 188.21L192.52 188.21" fill="white" fill-opacity="0.7"/>
<path d="M206.80 197.83Q204.42 197.83 203.02 196.44Q201.62 195.05 201.62 192.55L201.62 189.53Q201.62 187.01 203.01 185.63Q204.40 184.25 206.80 184.25Q209.20 184.25 210.59 185.63Q211.98 187.01 211.98 189.53L211.98 192.55Q211.98 195.05 210.58 196.44Q209.18 197.83 206.80 197.83M206.80 195.91Q208.22 195.91 209.02 195.12Q209.82 194.33 209.82 192.79L209.82 189.29Q209.82 187.75 209.02 186.96Q208.22 186.17 206.80 186.17Q205.41 186.17 204.59 186.96Q203.78 187.75 203.78 189.29L203.78 192.79Q203.78 194.33 204.59 195.12Q205.41 195.91 206.80 195.91" fill="white" fill-opacity="0.7"/>
<path d="M218.85 197.64L216.69 197.64L216.69 184.44L218.85 184.44L218.85 186.96L218.90 186.96Q219.06 185.69 219.98 184.94Q220.89 184.20 222.42 184.20Q224.49 184.20 225.60 185.44Q226.72 186.67 226.72 188.95L226.72 190.08L224.56 190.08L224.56 188.95Q224.56 186.07 221.75 186.07Q220.34 186.07 219.59 186.89Q218.85 187.70 218.85 189.24" fill="white" fill-opacity="0.7"/>
<path d="M231.86 197.64L229.84 197.64L229.84 184.44L231.71 184.44L231.71 186.19L231.76 186.19Q231.88 185.30 232.47 184.75Q233.06 184.20 233.97 184.20Q234.83 184.20 235.43 184.70Q236.03 185.21 236.30 186.07L236.32 186.07Q236.49 185.21 237.08 184.70Q237.66 184.20 238.58 184.20Q239.85 184.20 240.60 185.15Q241.36 186.10 241.36 187.61L241.36 197.64L239.34 197.64L239.34 187.58Q239.34 186.79 238.96 186.32Q238.58 185.86 237.90 185.86Q237.26 185.86 236.87 186.31Q236.49 186.77 236.49 187.56L236.49 197.64L234.71 197.64L234.71 187.58Q234.71 186.79 234.33 186.32Q233.94 185.86 233.30 185.86Q232.62 185.86 232.24 186.31Q231.86 186.77 231.86 187.56" fill="white" fill-opacity="0.7"/>
<path d="M248.85 197.88Q246.81 197.88 245.61 196.74Q244.41 195.60 244.41 193.75Q244.41 192.53 244.96 191.62Q245.51 190.70 246.50 190.19Q247.48 189.67 248.75 189.67L252.83 189.67L252.83 188.64Q252.83 186.07 250.02 186.07Q248.78 186.07 248.01 186.53Q247.24 186.98 247.19 187.80L245.03 187.80Q245.15 186.24 246.48 185.22Q247.82 184.20 250.02 184.20Q252.42 184.20 253.71 185.35Q254.99 186.50 254.99 188.57L254.99 197.64L252.86 197.64L252.86 195.24L252.81 195.24Q252.62 196.46 251.58 197.17Q250.55 197.88 248.85 197.88M249.38 196.06Q250.96 196.06 251.90 195.29Q252.83 194.52 252.83 193.20L252.83 191.35L248.99 191.35Q247.94 191.35 247.28 191.99Q246.62 192.62 246.62 193.68Q246.62 194.78 247.35 195.42Q248.08 196.06 249.38 196.06" fill="white" fill-opacity="0.7"/>
<path d="M269.56 197.64L265.72 197.64Q264.09 197.64 263.10 196.69Q262.12 195.74 262.12 194.16L262.12 186.41L258.33 186.41L258.33 184.44L262.12 184.44L262.12 180.72L264.28 180.72L264.28 184.44L269.68 184.44L269.68 186.41L264.28 186.41L264.28 194.16Q264.28 194.83 264.68 195.25Q265.07 195.67 265.72 195.67L269.56 195.67" fill="white" fill-opacity="0.7"/>
<path d="M290.85 197.64L288.69 197.64L288.69 184.44L290.85 184.44L290.85 186.96L290.90 186.96Q291.06 185.69 291.98 184.94Q292.89 184.20 294.42 184.20Q296.49 184.20 297.60 185.44Q298.72 186.67 298.72 188.95L298.72 190.08L296.56 190.08L296.56 188.95Q296.56 186.07 293.75 186.07Q292.34 186.07 291.59 186.89Q290.85 187.70 290.85 189.24" fill="white" fill-opacity="0.7"/>
<path d="M307.60 197.88Q305.27 197.88 303.84 196.48Q302.42 195.07 302.42 192.60L302.42 189.48Q302.42 187.01 303.84 185.60Q305.27 184.20 307.60 184.20Q309.16 184.20 310.32 184.82Q311.49 185.45 312.14 186.58Q312.78 187.70 312.78 189.24L312.78 191.59L304.53 191.59L304.53 192.84Q304.53 194.30 305.37 195.16Q306.21 196.01 307.60 196.01Q308.80 196.01 309.58 195.54Q310.36 195.07 310.53 194.28L312.69 194.28Q312.47 195.94 311.08 196.91Q309.69 197.88 307.60 197.88M304.53 189.24L304.53 189.91L310.67 189.91L310.67 189.24Q310.67 187.68 309.87 186.83Q309.06 185.98 307.60 185.98Q306.14 185.98 305.33 186.83Q304.53 187.68 304.53 189.24" fill="white" fill-opacity="0.7"/>
<path d="M319.17 201.96L317.01 201.96L317.01 184.44L319.17 184.44L319.17 186.96L319.19 186.96Q319.36 185.66 320.32 184.93Q321.28 184.20 322.77 184.20Q324.76 184.20 325.94 185.51Q327.11 186.82 327.11 189.10L327.11 192.96Q327.11 195.24 325.94 196.56Q324.76 197.88 322.77 197.88Q321.28 197.88 320.32 197.14Q319.36 196.39 319.19 195.12L319.12 195.12L319.17 198.12L319.17 201.96M322.05 196.01Q323.42 196.01 324.18 195.29Q324.95 194.57 324.95 192.96L324.95 189.12Q324.95 187.49 324.18 186.78Q323.42 186.07 322.05 186.07Q320.73 186.07 319.95 186.91Q319.17 187.75 319.17 189.24L319.17 192.84Q319.17 194.33 319.95 195.17Q320.73 196.01 322.05 196.01" fill="white" fill-opacity="0.7"/>
<path d="M336.40 197.83Q334.02 197.83 332.62 196.44Q331.22 195.05 331.22 192.55L331.22 189.53Q331.22 187.01 332.61 185.63Q334 184.25 336.40 184.25Q338.80 184.25 340.19 185.63Q341.58 187.01 341.58 189.53L341.58 192.55Q341.58 195.05 340.18 196.44Q338.78 197.83 336.40 197.83M336.40 195.91Q337.82 195.91 338.62 195.12Q339.42 194.33 339.42 192.79L339.42 189.29Q339.42 187.75 338.62 186.96Q337.82 186.17 336.40 186.17Q335.01 186.17 334.19 186.96Q333.38 187.75 333.38 189.29L333.38 192.79Q333.38 194.33 334.19 195.12Q335.01 195.91 336.40 195.91" fill="white" fill-opacity="0.7"/>
<path d="M351.33 197.83L350.27 197.83Q348.06 197.83 346.85 196.84Q345.64 195.84 345.64 194.02L347.80 194.02Q347.80 194.93 348.45 195.44Q349.10 195.96 350.27 195.96L351.33 195.96Q352.53 195.96 353.19 195.43Q353.85 194.90 353.85 193.94Q353.85 192.24 352.29 192.02L348.64 191.50Q347.30 191.30 346.55 190.38Q345.81 189.46 345.81 187.94Q345.81 186.22 347 185.23Q348.18 184.25 350.27 184.25L351.33 184.25Q353.25 184.25 354.46 185.20Q355.67 186.14 355.77 187.68L353.58 187.68Q353.54 186.98 352.92 186.53Q352.31 186.07 351.33 186.07L350.27 186.07Q349.17 186.07 348.54 186.58Q347.92 187.08 347.92 187.94Q347.92 189.34 349.19 189.53L352.60 190.01Q355.96 190.49 355.96 193.94Q355.96 195.79 354.75 196.81Q353.54 197.83 351.33 197.83" fill="white" fill-opacity="0.7"/>
<path d="M371.32 197.64L360.04 197.64L360.04 195.67L364.72 195.67L364.72 186.41L360.52 186.41L360.52 184.44L366.88 184.44L366.88 195.67L371.32 195.67L371.32 197.64M365.56 182.06Q364.77 182.06 364.31 181.66Q363.86 181.25 363.86 180.55Q363.86 179.83 364.31 179.41Q364.77 178.99 365.56 178.99Q366.35 178.99 366.81 179.41Q367.26 179.83 367.26 180.55Q367.26 181.25 366.81 181.66Q366.35 182.06 365.56 182.06" fill="white" fill-opacity="0.7"/>
<path d="M384.76 197.64L380.92 197.64Q379.29 197.64 378.30 196.69Q377.32 195.74 377.32 194.16L377.32 186.41L373.53 186.41L373.53 184.44L377.32 184.44L377.32 180.72L379.48 180.72L379.48 184.44L384.88 184.44L384.88 186.41L379.48 186.41L379.48 194.16Q379.48 194.83 379.88 195.25Q380.27 195.67 380.92 195.67L384.76 195.67" fill="white" fill-opacity="0.7"/>
<path d="M394 197.83Q391.62 197.83 390.22 196.44Q388.82 195.05 388.82 192.55L388.82 189.53Q388.82 187.01 390.21 185.63Q391.60 184.25 394 184.25Q396.40 184.25 397.79 185.63Q399.18 187.01 399.18 189.53L399.18 192.55Q399.18 195.05 397.78 196.44Q396.38 197.83 394 197.83M394 195.91Q395.42 195.91 396.22 195.12Q397.02 194.33 397.02 192.79L397.02 189.29Q397.02 187.75 396.22 186.96Q395.42 186.17 394 186.17Q392.61 186.17 391.79 186.96Q390.98 187.75 390.98 189.29L390.98 192.79Q390.98 194.33 391.79 195.12Q392.61 195.91 394 195.91" fill="white" fill-opacity="0.7"/>
<path d="M406.05 197.64L403.89 197.64L403.89 184.44L406.05 184.44L406.05 186.96L406.10 186.96Q406.26 185.69 407.18 184.94Q408.09 184.20 409.62 184.20Q411.69 184.20 412.80 185.44Q413.92 186.67 413.92 188.95L413.92 190.08L411.76 190.08L411.76 188.95Q411.76 186.07 408.95 186.07Q407.54 186.07 406.79 186.89Q406.05 187.70 406.05 189.24" fill="white" fill-opacity="0.7"/>
<path d="M422.13 201.96L419.87 201.96L421.82 196.82L416.90 184.44L419.22 184.44L422.34 192.60Q422.54 193.08 422.70 193.61Q422.87 194.14 422.94 194.52Q423.02 194.14 423.18 193.61Q423.35 193.08 423.52 192.60L426.42 184.44L428.70 184.44" fill="white" fill-opacity="0.7"/>
<path d="M451.72 197.64L449.56 197.64L449.56 188.21L445.72 188.21L445.72 186.24L449.56 186.24L449.56 183.48Q449.56 181.92 450.54 181.02Q451.53 180.12 453.26 180.12L457.12 180.12L457.12 182.09L453.26 182.09Q451.72 182.09 451.72 183.48L451.72 186.24L457.12 186.24L457.12 188.21L451.72 188.21" fill="white" fill-opacity="0.7"/>
<path d="M466 197.83Q463.62 197.83 462.22 196.44Q460.82 195.05 460.82 192.55L460.82 189.53Q460.82 187.01 462.21 185.63Q463.60 184.25 466 184.25Q468.40 184.25 469.79 185.63Q471.18 187.01 471.18 189.53L471.18 192.55Q471.18 195.05 469.78 196.44Q468.38 197.83 466 197.83M466 195.91Q467.42 195.91 468.22 195.12Q469.02 194.33 469.02 192.79L469.02 189.29Q469.02 187.75 468.22 186.96Q467.42 186.17 466 186.17Q464.61 186.17 463.79 186.96Q462.98 187.75 462.98 189.29L462.98 192.79Q462.98 194.33 463.79 195.12Q464.61 195.91 466 195.91" fill="white" fill-opacity="0.7"/>
<path d="M478.05 197.64L475.89 197.64L475.89 184.44L478.05 184.44L478.05 186.96L478.10 186.96Q478.26 185.69 479.18 184.94Q480.09 184.20 481.62 184.20Q483.69 184.20 484.80 185.44Q485.92 186.67 485.92 188.95L485.92 190.08L483.76 190.08L483.76 188.95Q483.76 186.07 480.95 186.07Q479.54 186.07 478.79 186.89Q478.05 187.70 478.05 189.24" fill="white" fill-opacity="0.7"/>
<path d="M507.28 197.64L504.57 197.64L502.48 180.12L504.47 180.12L505.84 193.08Q505.94 193.87 505.98 194.72Q506.03 195.58 506.06 196.08Q506.10 195.58 506.19 194.72Q506.27 193.87 506.37 193.08L508.10 180.12L510.42 180.12L512.01 193.08Q512.10 193.87 512.20 194.72Q512.30 195.58 512.34 196.08Q512.39 195.58 512.45 194.72Q512.51 193.87 512.61 193.08L514.02 180.12L515.92 180.12L513.78 197.64L511.07 197.64L509.49 184.44Q509.39 183.62 509.34 182.84Q509.30 182.06 509.25 181.63Q509.20 182.06 509.15 182.84Q509.10 183.62 508.98 184.44" fill="white" fill-opacity="0.7"/>
<path d="M523.60 197.88Q521.27 197.88 519.84 196.48Q518.42 195.07 518.42 192.60L518.42 189.48Q518.42 187.01 519.84 185.60Q521.27 184.20 523.60 184.20Q525.16 184.20 526.32 184.82Q527.49 185.45 528.14 186.58Q528.78 187.70 528.78 189.24L528.78 191.59L520.53 191.59L520.53 192.84Q520.53 194.30 521.37 195.16Q522.21 196.01 523.60 196.01Q524.80 196.01 525.58 195.54Q526.36 195.07 526.53 194.28L528.69 194.28Q528.47 195.94 527.08 196.91Q525.69 197.88 523.60 197.88M520.53 189.24L520.53 189.91L526.67 189.91L526.67 189.24Q526.67 187.68 525.87 186.83Q525.06 185.98 523.60 185.98Q522.14 185.98 521.33 186.83Q520.53 187.68 520.53 189.24" fill="white" fill-opacity="0.7"/>
<path d="M538.77 197.88Q537.28 197.88 536.32 197.15Q535.36 196.42 535.19 195.12L535.17 195.12L535.17 197.64L533.01 197.64L533.01 180.12L535.17 180.12L535.17 183.96L535.12 186.96L535.14 186.96Q535.34 185.69 536.31 184.94Q537.28 184.20 538.77 184.20Q540.76 184.20 541.94 185.52Q543.11 186.84 543.11 189.12L543.11 192.98Q543.11 195.24 541.94 196.56Q540.76 197.88 538.77 197.88M538.05 196.01Q539.42 196.01 540.18 195.29Q540.95 194.57 540.95 192.96L540.95 189.12Q540.95 187.49 540.18 186.78Q539.42 186.07 538.05 186.07Q536.73 186.07 535.95 186.91Q535.17 187.75 535.17 189.24L535.17 192.84Q535.17 194.33 535.95 195.17Q536.73 196.01 538.05 196.01" fill="white" fill-opacity="0.7"/>
<path d="M563.01 197.64L560.80 197.64L565.36 180.12L568.26 180.12L572.80 197.64L570.62 197.64L569.46 192.98L564.16 192.98L563.01 197.64M565.94 185.74L564.59 191.16L569.01 191.16L567.66 185.76Q567.28 184.22 567.06 183.19Q566.85 182.16 566.80 181.85Q566.75 182.16 566.54 183.19Q566.32 184.22 565.94 185.74" fill="white" fill-opacity="0.7"/>
<path d="M578.37 197.64L576.21 197.64L576.21 180.12L581.85 180.12Q584.30 180.12 585.75 181.52Q587.20 182.93 587.20 185.28Q587.20 187.63 585.75 189.04Q584.30 190.44 581.85 190.44L578.37 190.44L578.37 197.64M578.37 182.06L578.37 188.50L581.85 188.50Q583.26 188.50 584.12 187.62Q584.97 186.74 584.97 185.28Q584.97 183.79 584.12 182.93Q583.26 182.06 581.85 182.06" fill="white" fill-opacity="0.7"/>
<path d="M600.28 197.64L590.92 197.64L590.92 195.67L594.50 195.67L594.50 182.09L590.92 182.09L590.92 180.12L600.28 180.12L600.28 182.09L596.70 182.09L596.70 195.67L600.28 195.67" fill="white" fill-opacity="0.7"/>
<path d="M623.63 197.88Q621.66 197.88 620.48 196.56Q619.29 195.24 619.29 192.98L619.29 189.12Q619.29 186.84 620.46 185.52Q621.64 184.20 623.63 184.20Q625.12 184.20 626.09 184.94Q627.06 185.69 627.26 186.96L627.28 186.96L627.23 183.96L627.23 180.12L629.39 180.12L629.39 197.64L627.23 197.64L627.23 195.12L627.21 195.12Q627.04 196.42 626.08 197.15Q625.12 197.88 623.63 197.88M624.35 196.01Q625.70 196.01 626.46 195.17Q627.23 194.33 627.23 192.84L627.23 189.24Q627.23 187.75 626.46 186.91Q625.70 186.07 624.35 186.07Q622.98 186.07 622.22 186.78Q621.45 187.49 621.45 189.12L621.45 192.96Q621.45 194.57 622.22 195.29Q622.98 196.01 624.35 196.01" fill="white" fill-opacity="0.7"/>
<path d="M638.80 197.88Q636.47 197.88 635.04 196.48Q633.62 195.07 633.62 192.60L633.62 189.48Q633.62 187.01 635.04 185.60Q636.47 184.20 638.80 184.20Q640.36 184.20 641.52 184.82Q642.69 185.45 643.34 186.58Q643.98 187.70 643.98 189.24L643.98 191.59L635.73 191.59L635.73 192.84Q635.73 194.30 636.57 195.16Q637.41 196.01 638.80 196.01Q640 196.01 640.78 195.54Q641.56 195.07 641.73 194.28L643.89 194.28Q643.67 195.94 642.28 196.91Q640.89 197.88 638.80 197.88M635.73 189.24L635.73 189.91L641.87 189.91L641.87 189.24Q641.87 187.68 641.07 186.83Q640.26 185.98 638.80 185.98Q637.34 185.98 636.53 186.83Q635.73 187.68 635.73 189.24" fill="white" fill-opacity="0.7"/>
<path d="M653.32 197.64L651.16 197.64L651.16 188.21L647.32 188.21L647.32 186.24L651.16 186.24L651.16 183.48Q651.16 181.92 652.14 181.02Q653.13 180.12 654.86 180.12L658.72 180.12L658.72 182.09L654.86 182.09Q653.32 182.09 653.32 183.48L653.32 186.24L658.72 186.24L658.72 188.21L653.32 188.21" fill="white" fill-opacity="0.7"/>
<path d="M673.72 197.64L662.44 197.64L662.44 195.67L667.12 195.67L667.12 186.41L662.92 186.41L662.92 184.44L669.28 184.44L669.28 195.67L673.72 195.67L673.72 197.64M667.96 182.06Q667.17 182.06 666.71 181.66Q666.26 181.25 666.26 180.55Q666.26 179.83 666.71 179.41Q667.17 178.99 667.96 178.99Q668.75 178.99 669.21 179.41Q669.66 179.83 669.66 180.55Q669.66 181.25 669.21 181.66Q668.75 182.06 667.96 182.06" fill="white" fill-opacity="0.7"/>
<path d="M679.17 197.64L677.01 197.64L677.01 184.44L679.17 184.44L679.17 186.96L679.19 186.96Q679.36 185.64 680.27 184.92Q681.18 184.20 682.70 184.20Q684.69 184.20 685.86 185.42Q687.04 186.65 687.04 188.76L687.04 197.64L684.88 197.64L684.88 189.14Q684.88 187.63 684.12 186.83Q683.37 186.02 682.07 186.02Q680.73 186.02 679.95 186.86Q679.17 187.70 679.17 189.24" fill="white" fill-opacity="0.7"/>
<path d="M702.52 197.64L691.24 197.64L691.24 195.67L695.92 195.67L695.92 186.41L691.72 186.41L691.72 184.44L698.08 184.44L698.08 195.67L702.52 195.67L702.52 197.64M696.76 182.06Q695.97 182.06 695.51 181.66Q695.06 181.25 695.06 180.55Q695.06 179.83 695.51 179.41Q695.97 178.99 696.76 178.99Q697.55 178.99 698.01 179.41Q698.46 179.83 698.46 180.55Q698.46 181.25 698.01 181.66Q697.55 182.06 696.76 182.06" fill="white" fill-opacity="0.7"/>
<path d="M715.96 197.64L712.12 197.64Q710.49 197.64 709.50 196.69Q708.52 195.74 708.52 194.16L708.52 186.41L704.73 186.41L704.73 184.44L708.52 184.44L708.52 180.72L710.68 180.72L710.68 184.44L716.08 184.44L716.08 186.41L710.68 186.41L710.68 194.16Q710.68 194.83 711.08 195.25Q711.47 195.67 712.12 195.67L715.96 195.67" fill="white" fill-opacity="0.7"/>
<path d="M731.32 197.64L720.04 197.64L720.04 195.67L724.72 195.67L724.72 186.41L720.52 186.41L720.52 184.44L726.88 184.44L726.88 195.67L731.32 195.67L731.32 197.64M725.56 182.06Q724.77 182.06 724.31 181.66Q723.86 181.25 723.86 180.55Q723.86 179.83 724.31 179.41Q724.77 178.99 725.56 178.99Q726.35 178.99 726.81 179.41Q727.26 179.83 727.26 180.55Q727.26 181.25 726.81 181.66Q726.35 182.06 725.56 182.06" fill="white" fill-opacity="0.7"/>
<path d="M739.60 197.83Q737.22 197.83 735.82 196.44Q734.42 195.05 734.42 192.55L734.42 189.53Q734.42 187.01 735.81 185.63Q737.20 184.25 739.60 184.25Q742 184.25 743.39 185.63Q744.78 187.01 744.78 189.53L744.78 192.55Q744.78 195.05 743.38 196.44Q741.98 197.83 739.60 197.83M739.60 195.91Q741.02 195.91 741.82 195.12Q742.62 194.33 742.62 192.79L742.62 189.29Q742.62 187.75 741.82 186.96Q741.02 186.17 739.60 186.17Q738.21 186.17 737.39 186.96Q736.58 187.75 736.58 189.29L736.58 192.79Q736.58 194.33 737.39 195.12Q738.21 195.91 739.60 195.91" fill="white" fill-opacity="0.7"/>
<path d="M751.17 197.64L749.01 197.64L749.01 184.44L751.17 184.44L751.17 186.96L751.19 186.96Q751.36 185.64 752.27 184.92Q753.18 184.20 754.70 184.20Q756.69 184.20 757.86 185.42Q759.04 186.65 759.04 188.76L759.04 197.64L756.88 197.64L756.88 189.14Q756.88 187.63 756.12 186.83Q755.37 186.02 754.07 186.02Q752.73 186.02 751.95 186.86Q751.17 187.70 751.17 189.24" fill="white" fill-opacity="0.7"/>
<path d="M768.93 197.83L767.87 197.83Q765.66 197.83 764.45 196.84Q763.24 195.84 763.24 194.02L765.40 194.02Q765.40 194.93 766.05 195.44Q766.70 195.96 767.87 195.96L768.93 195.96Q770.13 195.96 770.79 195.43Q771.45 194.90 771.45 193.94Q771.45 192.24 769.89 192.02L766.24 191.50Q764.90 191.30 764.15 190.38Q763.41 189.46 763.41 187.94Q763.41 186.22 764.60 185.23Q765.78 184.25 767.87 184.25L768.93 184.25Q770.85 184.25 772.06 185.20Q773.27 186.14 773.37 187.68L771.18 187.68Q771.14 186.98 770.52 186.53Q769.91 186.07 768.93 186.07L767.87 186.07Q766.77 186.07 766.14 186.58Q765.52 187.08 765.52 187.94Q765.52 189.34 766.79 189.53L770.20 190.01Q773.56 190.49 773.56 193.94Q773.56 195.79 772.35 196.81Q771.14 197.83 768.93 197.83" fill="white" fill-opacity="0.7"/>
<path d="M782.80 197.88Q781.91 197.88 781.37 197.35Q780.83 196.82 780.83 195.98Q780.83 195.10 781.37 194.54Q781.91 193.99 782.80 193.99Q783.69 193.99 784.23 194.54Q784.77 195.10 784.77 195.98Q784.77 196.82 784.23 197.35Q783.69 197.88 782.80 197.88" fill="white" fill-opacity="0.7"/>
<path d="M76.11 136.06L66.42 136.06L84.56 65.98L97.14 65.98L115.18 136.06L105.49 136.06L101.07 117.82L80.53 117.82L76.11 136.06M87.54 88.92L82.45 109.95L99.15 109.95L94.16 89.02Q92.72 83.26 91.86 79.23Q90.99 75.20 90.80 73.76Q90.61 75.20 89.74 79.23Q88.88 83.26 87.54 88.92M137.55 136.06L128.05 136.06L128.05 65.98L150.80 65.98Q157.52 65.98 162.42 68.57Q167.31 71.16 170 75.82Q172.69 80.48 172.69 86.91Q172.69 93.24 170 97.90Q167.31 102.56 162.37 105.15Q157.42 107.74 150.80 107.74L137.55 107.74L137.55 136.06M137.55 74.43L137.55 99.29L150.80 99.29Q156.37 99.29 159.63 95.88Q162.90 92.48 162.90 86.91Q162.90 81.24 159.63 77.84Q156.37 74.43 150.80 74.43L137.55 74.43M225.10 136.06L186.90 136.06L186.90 127.42L201.20 127.42L201.20 74.62L186.90 74.62L186.90 65.98L225.10 65.98L225.10 74.62L210.80 74.62L210.80 127.42L225.10 127.42L225.10 136.06M263.98 137.02Q253.62 137.02 247.47 131.60Q241.33 126.17 241.33 116.67L250.83 116.67Q250.83 122.24 254.38 125.40Q257.94 128.57 263.98 128.57Q269.74 128.57 273.15 125.36Q276.56 122.14 276.56 116.76Q276.56 112.73 274.35 109.71Q272.14 106.68 268.11 105.63L257.74 102.84Q250.93 100.92 246.94 95.88Q242.96 90.84 242.96 83.93Q242.96 78.27 245.50 74Q248.05 69.72 252.66 67.37Q257.26 65.02 263.31 65.02Q269.46 65.02 274.11 67.37Q278.77 69.72 281.36 73.95Q283.95 78.17 283.95 83.74L274.54 83.74Q274.54 79.13 271.42 76.25Q268.30 73.37 263.31 73.37Q258.32 73.37 255.30 76.25Q252.27 79.13 252.27 83.74Q252.27 87.48 254.29 90.03Q256.30 92.57 259.95 93.63L270.61 96.51Q277.81 98.43 281.84 103.85Q285.87 109.28 285.87 116.76Q285.87 122.91 283.18 127.47Q280.50 132.03 275.55 134.52Q270.61 137.02 263.98 137.02M379.18 137.02Q369.49 137.02 363.78 131.60Q358.06 126.17 358.06 116.67L358.06 85.28Q358.06 75.87 363.78 70.44Q369.49 65.02 379.18 65.02Q388.78 65.02 394.50 70.49Q400.21 75.96 400.21 85.28L390.70 85.28Q390.70 79.61 387.63 76.54Q384.56 73.47 379.18 73.47Q373.71 73.47 370.64 76.54Q367.57 79.61 367.57 85.28L367.57 116.67Q367.57 122.43 370.64 125.50Q373.71 128.57 379.18 128.57Q384.56 128.57 387.63 125.50Q390.70 122.43 390.70 116.67L390.70 107.55L377.07 107.55L377.07 99.10L400.21 99.10L400.21 116.67Q400.21 126.08 394.50 131.55Q388.78 137.02 379.18 137.02M436.40 137.02Q426.51 137.02 421.18 131.55Q415.86 126.08 415.86 116.67L415.86 65.98L425.36 65.98L425.36 116.67Q425.36 122.24 428.10 125.40Q430.83 128.57 436.40 128.57Q441.87 128.57 444.70 125.40Q447.54 122.24 447.54 116.67L447.54 65.98L457.04 65.98L457.04 116.67Q457.04 126.17 451.71 131.60Q446.38 137.02 436.40 137.02M483.15 136.06L473.74 136.06L473.74 65.98L495.44 65.98Q501.87 65.98 506.67 68.52Q511.47 71.07 514.16 75.63Q516.85 80.19 516.85 86.33Q516.85 93.44 513.25 98.52Q509.65 103.61 503.70 105.72L517.81 136.06L507.34 136.06LNaN 106.78L483.15 106.78L483.15 136.06M483.15 74.43L483.15 98.33L495.44 98.33Q500.82 98.33 503.94 95.07Q507.06 91.80 507.06 86.43Q507.06 80.96 503.89 77.69Q500.72 74.43 495.44 74.43L483.15 74.43M551.60 137.02Q541.71 137.02 536.38 131.55Q531.06 126.08 531.06 116.67L531.06 65.98L540.56 65.98L540.56 116.67Q540.56 122.24 543.30 125.40Q546.03 128.57 551.60 128.57Q557.07 128.57 559.90 125.40Q562.74 122.24 562.74 116.67L562.74 65.98L572.24 65.98L572.24 116.67Q572.24 126.17 566.91 131.60Q561.58 137.02 551.60 137.02" fill="url(#paint2_linear_0_1)"/>
<g id="Group 1">
<rect id="Rectangle 1" x="26" y="168" width="12" height="184" rx="5" fill="url(#paint3_linear_0_1)" fill-opacity="0.9"/>
</g>
<g id="Group 1_2">
<rect id="Rectangle 2" x="26" y="38" width="12" height="119" rx="5" fill="url(#paint4_linear_0_1)" fill-opacity="0.9"/>
</g>
<ellipse id="Ellipse 1" cx="148.5" cy="573" rx="215.5" ry="214" fill="url(#paint5_linear_0_1)" fill-opacity="0.4"/>
<rect id="Rectangle 3" x="1229" y="48" width="300" height="300" rx="25" fill="#FFFBFB" fill-opacity="0.9"/>
<g id="placeholder-logo"><g transform="translate(1229,48) translate(0.0,40.0) scale(1.0000)"><g>
	<path fill="#2B2C2B" d="M106.945,47.713c0-2.999,2.124-6.678,4.721-8.177l37.686-21.756c2.597-1.5,6.845-1.5,9.441,0l37.688,21.756
		c2.596,1.5,4.721,5.179,4.721,8.177v43.513c0,2.999-2.125,6.679-4.721,8.177l-37.688,21.755c-2.597,1.498-6.845,1.498-9.441,0
		l-37.686-21.755c-2.597-1.499-4.721-5.179-4.721-8.177V47.713z"/>
	<path fill="#FED16E" d="M111.359,50.262c0-2.999,2.125-6.678,4.721-8.177l33.271-19.208c2.597-1.499,6.845-1.499,9.441,0
		l33.271,19.208c2.598,1.499,4.721,5.179,4.721,8.177v38.415c0,2.999-2.123,6.678-4.721,8.177l-33.271,19.21
		c-2.597,1.498-6.845,1.498-9.441,0l-33.271-19.21c-2.597-1.499-4.721-5.178-4.721-8.177V50.262z"/>
	
		<linearGradient id="SVGID_1_" gradientUnits="userSpaceOnUse" x1="403.6816" y1="-143.4688" x2="340.937" y2="-143.4688" gradientTransform="matrix(1 0 0 -1 -206 -74)">
		<stop  offset="0" style="stop-color:#FEC017"/>
		<stop  offset="1" style="stop-color:#F89923"/>
	</linearGradient>
	<path fill="url(#SVGID_1_)" d="M192.062,42.085l-33.271-19.208c-1.299-0.75-3.011-1.125-4.721-1.125v95.435
		c1.71,0,3.422-0.375,4.721-1.123l33.271-19.21c2.598-1.499,4.721-5.177,4.721-8.177V50.262
		C196.783,47.264,194.66,43.585,192.062,42.085z"/>
	<path fill="#2B2C2B" d="M97.076,46.184c0-1.499,1.062-3.339,2.361-4.088l20.041-11.571c1.299-0.749,3.423-0.749,4.722,0
		l20.041,11.571c1.299,0.75,2.361,2.589,2.361,4.088v23.14c0,1.499-1.062,3.339-2.361,4.088L124.2,84.985
		c-1.299,0.75-3.423,0.75-4.722,0L99.438,73.412c-1.299-0.749-2.361-2.59-2.361-4.088V46.184L97.076,46.184z"/>
	<path fill="#9DDBEE" d="M101.375,48.665c0-1.499,1.062-3.339,2.361-4.088l15.742-9.09c1.299-0.75,3.423-0.75,4.722,0l15.746,9.09
		c1.299,0.749,2.361,2.589,2.361,4.088v18.178c0,1.499-1.062,3.339-2.361,4.089L124.2,80.022c-1.299,0.75-3.423,0.75-4.722,0
		l-15.742-9.091c-1.299-0.75-2.361-2.59-2.361-4.089V48.665L101.375,48.665z"/>
	<path fill="#4CB0C1" d="M104.07,70.694V52.965c0-1.674,1.18-3.73,2.615-4.568l15.234-8.867c1.441-0.836,3.794-0.836,5.233,0
		l15.128,8.806c-0.224-1.547-1.29-3.254-2.57-3.998l-15.231-8.867c-1.44-0.836-3.793-0.836-5.233,0l-15.233,8.867
		c-1.438,0.837-2.617,2.892-2.617,4.566v17.731c0,1.674,1.178,3.729,2.617,4.565l0.105,0.064
		C104.091,71.071,104.07,70.879,104.07,70.694z"/>
	<path fill="#2B2C2B" d="M160.895,46.184c0-1.499,1.062-3.339,2.359-4.088l20.039-11.571c1.301-0.749,3.426-0.749,4.725,0
		l20.039,11.571c1.299,0.75,2.359,2.589,2.359,4.088v23.14c0,1.499-1.062,3.339-2.359,4.088l-20.041,11.574
		c-1.297,0.75-3.422,0.75-4.721,0l-20.041-11.574c-1.299-0.749-2.359-2.59-2.359-4.088V46.184L160.895,46.184z"/>
	<path fill="#9DDBEE" d="M165.205,48.671c0-1.499,1.063-3.339,2.361-4.088l15.727-9.081c1.299-0.749,3.424-0.749,4.723,0
		l15.727,9.081c1.299,0.75,2.361,2.589,2.361,4.088v18.162c0,1.499-1.062,3.339-2.361,4.088l-15.727,9.083
		c-1.299,0.749-3.424,0.749-4.723,0l-15.727-9.083c-1.299-0.749-2.361-2.59-2.361-4.088V48.671z"/>
	<path fill="#2B2C2B" d="M113.079,22.657c0,0,2.652-9.435,3.686-9.141c1.032,0.294,18.572,1.624,30.074,21.524
		C141.428,27.394,113.079,22.657,113.079,22.657z"/>
	<path fill="#2B2C2B" d="M195.074,22.657c0,0-2.652-9.435-3.684-9.141c-1.033,0.294-18.578,1.624-30.072,21.524
		C166.726,27.394,195.074,22.657,195.074,22.657z"/>
	<polygon fill="#2B2C2B" points="145.341,118.058 154.353,133.989 163.365,118.058 150.738,118.867 	"/>
	<path fill="#2B2C2B" d="M163.964,116.687c0-1.95-4.302-3.529-9.608-3.529c-5.308,0-9.612,1.579-9.612,3.529
		c0,1.946,4.304,3.526,9.612,3.526C159.663,120.213,163.964,118.633,163.964,116.687z"/>
	<path fill="#2B2C2B" d="M156.166,80.24c-1.151-0.959-3.037-0.959-4.189,0l-3.756,3.126c-1.152,0.959-0.868,1.744,0.631,1.744h10.44
		c1.499,0,1.784-0.784,0.631-1.744L156.166,80.24z"/>
	<path fill="#2B2C2B" d="M168.852,95.424c-4.29,1.81-8.761,2.752-13.701,2.816c-5.572,0.073-10.866-1.097-15.635-3.233l-1.922,3.25
		c5.398,2.521,11.244,3.811,17.604,3.724c5.771-0.073,10.405-0.988,15.352-3.209L168.852,95.424z"/>
	<path fill="#4CB0C1" d="M167.887,70.604V52.956c0-1.667,1.178-3.713,2.613-4.546l15.236-8.827c1.439-0.833,3.795-0.833,5.234,0
		l15.125,8.765c-0.221-1.541-1.289-3.239-2.568-3.979l-15.234-8.826c-1.438-0.833-3.793-0.833-5.23,0l-15.231,8.826
		c-1.441,0.834-2.616,2.878-2.616,4.545v17.65c0,1.669,1.175,3.713,2.612,4.546l0.106,0.061
		C167.904,70.979,167.887,70.789,167.887,70.604z"/>
	<path fill="#2B2C2B" d="M120.942,50.043v7.397l-4.815-5.604c-1.579,1.356-2.58,3.362-2.58,5.604c0,4.083,3.313,7.393,7.396,7.393
		c4.083,0,7.393-3.31,7.393-7.393S125.025,50.045,120.942,50.043z"/>
	<path fill="#2B2C2B" d="M185.59,50.043v7.397l-4.814-5.604c-1.574,1.356-2.578,3.362-2.578,5.604c0,4.083,3.312,7.393,7.395,7.393
		s7.393-3.31,7.393-7.393C192.982,53.357,189.676,50.045,185.59,50.043z"/>
	<path fill="#2B2C2B" d="M151.392,49.654l-8.073,4.704v4.89l8.073-4.705c1.364-0.795,3.603-0.795,4.971,0l8.465,4.934v-4.89
		l-8.465-4.933C154.993,48.857,152.756,48.857,151.392,49.654z"/>
	<path fill="#2B2C2B" d="M151.841,110.468l-6.483,3.778v3.93l6.483-3.779c1.1-0.641,2.896-0.641,3.996,0l6.799,3.963v-3.929
		l-6.799-3.961C154.736,109.829,152.94,109.829,151.841,110.468z"/>
</g>
<g>
	<path fill="#2B2C2B" d="M21.521,196.979h-8.329l18.585-43.783h8.726l18.984,43.783h-8.726l-4.991-11.938H31.226l2.787-7.041h8.819
		l-6.892-16.443L21.521,196.979z"/>
	<path fill="#2B2C2B" d="M64.846,196.979v-43.783h19.596c8.94,0,13.411,4.115,13.411,12.341c0,8.92-6.114,14.317-18.34,16.196
		l-1.163-7.228c7.349-1.326,11.022-4.235,11.022-8.727c0-3.633-1.817-5.451-5.452-5.451H72.959v36.65L64.846,196.979L64.846,196.979
		z"/>
	<path fill="#2B2C2B" d="M111.323,153.194v43.783h-8.113v-43.783H111.323z"/>
	<path fill="#2B2C2B" d="M119.745,195.448v-6.734c3.569,1.426,7.695,2.144,12.37,2.144c3.49,0,5.236-1.123,5.236-3.371
		c0-2.144-1.174-3.211-3.521-3.211h-5.818c-6.532,0-9.799-3.217-9.799-9.647c0-6.734,4.769-10.104,14.3-10.104
		c4.043,0,7.85,0.61,11.422,1.836v6.737c-3.572-1.43-7.451-2.143-11.636-2.143c-4.389,0-6.583,1.123-6.583,3.367
		c0,2.143,1.275,3.215,3.828,3.215h5.204c7.145,0,10.716,3.215,10.716,9.645c0,6.736-4.552,10.104-13.654,10.104
		C127.337,197.284,123.315,196.673,119.745,195.448z"/>
	<path fill="#2B2C2B" d="M158.479,189.479v7.5h-8.113v-7.5H158.479z"/>
	<path fill="#2B2C2B" d="M194.621,194.53c0,9.391-5.643,14.084-16.932,14.084c-3.961,0-7.469-0.51-10.533-1.531v-6.428
		c3.125,1.02,6.654,1.529,10.594,1.529c5.838,0,8.758-2.449,8.758-7.35c-2.408,1.022-5.002,1.53-7.777,1.53
		c-9.555,0-14.329-5.215-14.329-15.646c0-10.594,5.563-15.891,16.687-15.891c3.734,0,8.246,0.438,13.533,1.315V194.53
		L194.621,194.53z M186.508,172.116c-1.328-0.488-3.215-0.734-5.664-0.734c-5.613,0-8.42,3.095-8.42,9.277
		c0,5.98,2.418,8.973,7.256,8.973c2.326,0,4.604-0.551,6.828-1.651V172.116z"/>
	<path fill="#2B2C2B" d="M231.211,164.829v32.148h-6.338l-0.979-4.102c-3.693,2.735-7.611,4.102-11.756,4.102
		c-6.572,0-9.859-3.885-9.859-11.664v-20.484h8.113V185.1c0,3.553,1.551,5.327,4.652,5.327c2.635,0,5.316-1.051,8.055-3.153v-22.442
		h8.111V164.829z"/>
	<path fill="#2B2C2B" d="M238.867,196.979v-32.147h6.275l1.012,4.104c2.816-2.736,5.797-4.104,8.941-4.104v6.553
		c-3.021,0-5.727,1.256-8.115,3.768v21.828L238.867,196.979L238.867,196.979z"/>
	<path fill="#2B2C2B" d="M288.621,164.829v32.148h-6.338l-0.979-4.102c-3.695,2.735-7.613,4.102-11.758,4.102
		c-6.572,0-9.859-3.885-9.859-11.664v-20.484h8.113V185.1c0,3.553,1.551,5.327,4.656,5.327c2.631,0,5.314-1.051,8.051-3.153v-22.442
		h8.113V164.829z"/>
</g></g></g>
</g>
<defs>
<linearGradient id="paint0_linear_0_1" x1="0" y1="198" x2="1584" y2="198" gradientUnits="userSpaceOnUse">
<stop stop-color="#3D052C"/>
<stop offset="1"/>
</linearGradient>
<linearGradient id="paint1_linear_0_1" x1="323" y1="-224" x2="323" y2="352" gradientUnits="userSpaceOnUse">
<stop stop-color="#28F6F2" stop-opacity="0.4"/>
<stop offset="1" stop-color="#17908E" stop-opacity="0.7"/>
</linearGradient>
<linearGradient id="paint2_linear_0_1" x1="148.5" y1="38" x2="148.5" y2="140" gradientUnits="userSpaceOnUse">
<stop stop-color="white"/>
<stop offset="1" stop-color="#999999"/>
</linearGradient>
<linearGradient id="paint3_linear_0_1" x1="38" y1="260" x2="26" y2="260" gradientUnits="userSpaceOnUse">
<stop stop-color="#D9D9D9"/>
<stop offset="1" stop-color="#737373"/>
</linearGradient>
<linearGradient id="paint4_linear_0_1" x1="38" y1="97.5" x2="26" y2="97.5" gradientUnits="userSpaceOnUse">
<stop stop-color="#D9D9D9"/>
<stop offset="1" stop-color="#737373"/>
</linearGradient>
<linearGradient id="paint5_linear_0_1" x1="27.5" y1="434.5" x2="148.5" y2="787" gradientUnits="userSpaceOnUse">
<stop stop-color="#2E21BC"/>
<stop offset="1" stop-color="#150F56"/>
</linearGradient>
<clipPath id="clip0_0_1">
<rect width="1584" height="396" fill="white"/>
</clipPath>
</defs>
</svg>
